<svg width="2640" height="743" viewBox="0 0 2640 743" fill="none" xmlns="http://www.w3.org/2000/svg">
<g opacity="0.98">
<path d="M937.139 642.27V424.088H1076.91V457.221H976.663V516.453H1067.32V549.586H976.663V642.27H937.139Z" fill="#8A2283"/>
<path d="M1108.87 642.27V478.634H1146.27V505.907H1147.97C1150.95 496.461 1156.07 489.181 1163.31 484.067C1170.63 478.882 1178.97 476.29 1188.35 476.29C1190.48 476.29 1192.86 476.397 1195.48 476.61C1198.18 476.752 1200.42 477 1202.2 477.355V512.831C1200.56 512.263 1197.97 511.766 1194.42 511.34C1190.94 510.843 1187.57 510.594 1184.3 510.594C1177.27 510.594 1170.95 512.121 1165.33 515.175C1159.8 518.158 1155.43 522.313 1152.23 527.64C1149.04 532.966 1147.44 539.11 1147.44 546.07V642.27H1108.87Z" fill="#8A2283"/>
<path d="M1293.52 645.466C1277.12 645.466 1262.95 642.057 1251.01 635.239C1239.15 628.35 1230.03 618.62 1223.64 606.049C1217.24 593.407 1214.05 578.527 1214.05 561.411C1214.05 544.579 1217.24 529.806 1223.64 517.093C1230.1 504.309 1239.12 494.365 1250.7 487.263C1262.27 480.09 1275.87 476.503 1291.5 476.503C1301.58 476.503 1311.1 478.137 1320.05 481.404C1329.07 484.6 1337.02 489.571 1343.91 496.319C1350.87 503.066 1356.34 511.659 1360.32 522.1C1364.3 532.469 1366.28 544.827 1366.28 559.174V570.999H1232.16V545.005H1329.32C1329.25 537.618 1327.65 531.049 1324.52 525.296C1321.4 519.472 1317.03 514.891 1311.42 511.553C1305.88 508.215 1299.42 506.546 1292.03 506.546C1284.15 506.546 1277.22 508.463 1271.26 512.299C1265.29 516.063 1260.64 521.034 1257.3 527.213C1254.03 533.321 1252.36 540.033 1252.29 547.348V570.04C1252.29 579.557 1254.03 587.725 1257.51 594.543C1260.99 601.29 1265.86 606.475 1272.11 610.097C1278.36 613.648 1285.67 615.424 1294.05 615.424C1299.67 615.424 1304.74 614.642 1309.29 613.08C1313.83 611.446 1317.78 609.067 1321.11 605.942C1324.45 602.817 1326.97 598.946 1328.68 594.33L1364.69 598.378C1362.41 607.895 1358.08 616.205 1351.69 623.307C1345.37 630.338 1337.27 635.807 1327.4 639.713C1317.53 643.549 1306.24 645.466 1293.52 645.466Z" fill="#8A2283"/>
<path d="M1471.35 645.466C1454.95 645.466 1440.78 642.057 1428.85 635.239C1416.99 628.35 1407.86 618.62 1401.47 606.049C1395.08 593.407 1391.88 578.527 1391.88 561.411C1391.88 544.579 1395.08 529.806 1401.47 517.093C1407.93 504.309 1416.95 494.365 1428.53 487.263C1440.1 480.09 1453.7 476.503 1469.33 476.503C1479.42 476.503 1488.93 478.137 1497.88 481.404C1506.9 484.6 1514.86 489.571 1521.74 496.319C1528.7 503.066 1534.17 511.659 1538.15 522.1C1542.13 532.469 1544.12 544.827 1544.12 559.174V570.999H1409.99V545.005H1507.15C1507.08 537.618 1505.48 531.049 1502.36 525.296C1499.23 519.472 1494.86 514.891 1489.25 511.553C1483.71 508.215 1477.25 506.546 1469.86 506.546C1461.98 506.546 1455.05 508.463 1449.09 512.299C1443.12 516.063 1438.47 521.034 1435.13 527.213C1431.87 533.321 1430.2 540.033 1430.13 547.348V570.04C1430.13 579.557 1431.87 587.725 1435.35 594.543C1438.83 601.29 1443.69 606.475 1449.94 610.097C1456.19 613.648 1463.51 615.424 1471.89 615.424C1477.5 615.424 1482.58 614.642 1487.12 613.08C1491.67 611.446 1495.61 609.067 1498.95 605.942C1502.28 602.817 1504.81 598.946 1506.51 594.33L1542.52 598.378C1540.25 607.895 1535.91 616.205 1529.52 623.307C1523.2 630.338 1515.1 635.807 1505.23 639.713C1495.36 643.549 1484.07 645.466 1471.35 645.466Z" fill="#8A2283"/>
<path d="M1652.86 642.27V424.088H1794.76V457.221H1692.39V516.453H1787.41V549.586H1692.39V609.138H1795.62V642.27H1652.86Z" fill="#8A2283"/>
<path d="M1871.95 546.39V642.27H1833.38V478.634H1870.24V506.439H1872.16C1875.93 497.277 1881.93 489.998 1890.17 484.6C1898.48 479.202 1908.74 476.503 1920.95 476.503C1932.25 476.503 1942.08 478.918 1950.46 483.747C1958.92 488.577 1965.45 495.573 1970.07 504.735C1974.75 513.897 1977.06 525.012 1976.99 538.08V642.27H1938.43V544.046C1938.43 533.108 1935.59 524.55 1929.9 518.371C1924.29 512.192 1916.52 509.103 1906.57 509.103C1899.83 509.103 1893.82 510.594 1888.57 513.577C1883.38 516.489 1879.3 520.715 1876.32 526.255C1873.4 531.794 1871.95 538.506 1871.95 546.39Z" fill="#8A2283"/>
<path d="M2088.64 645.466C2072.23 645.466 2058.06 642.057 2046.13 635.239C2034.27 628.35 2025.14 618.62 2018.75 606.049C2012.36 593.407 2009.16 578.527 2009.16 561.411C2009.16 544.579 2012.36 529.806 2018.75 517.093C2025.22 504.309 2034.24 494.365 2045.81 487.263C2057.39 480.09 2070.99 476.503 2086.62 476.503C2096.7 476.503 2106.22 478.137 2115.17 481.404C2124.19 484.6 2132.14 489.571 2139.03 496.319C2145.99 503.066 2151.46 511.659 2155.44 522.1C2159.41 532.469 2161.4 544.827 2161.4 559.174V570.999H2027.28V545.005H2124.43C2124.36 537.618 2122.77 531.049 2119.64 525.296C2116.52 519.472 2112.15 514.891 2106.54 511.553C2101 508.215 2094.53 506.546 2087.15 506.546C2079.26 506.546 2072.34 508.463 2066.37 512.299C2060.41 516.063 2055.76 521.034 2052.42 527.213C2049.15 533.321 2047.48 540.033 2047.41 547.348V570.04C2047.41 579.557 2049.15 587.725 2052.63 594.543C2056.11 601.29 2060.98 606.475 2067.23 610.097C2073.48 613.648 2080.79 615.424 2089.17 615.424C2094.78 615.424 2099.86 614.642 2104.41 613.08C2108.95 611.446 2112.89 609.067 2116.23 605.942C2119.57 602.817 2122.09 598.946 2123.8 594.33L2159.8 598.378C2157.53 607.895 2153.2 616.205 2146.81 623.307C2140.49 630.338 2132.39 635.807 2122.52 639.713C2112.64 643.549 2101.35 645.466 2088.64 645.466Z" fill="#8A2283"/>
<path d="M2194.03 642.27V478.634H2231.42V505.907H2233.13C2236.11 496.461 2241.22 489.181 2248.47 484.067C2255.78 478.882 2264.13 476.29 2273.5 476.29C2275.63 476.29 2278.01 476.397 2280.64 476.61C2283.34 476.752 2285.58 477 2287.35 477.355V512.831C2285.72 512.263 2283.13 511.766 2279.57 511.34C2276.09 510.843 2272.72 510.594 2269.45 510.594C2262.42 510.594 2256.1 512.121 2250.49 515.175C2244.95 518.158 2240.58 522.313 2237.39 527.64C2234.19 532.966 2232.59 539.11 2232.59 546.07V642.27H2194.03Z" fill="#8A2283"/>
<path d="M2377.4 707.043C2363.55 707.043 2351.65 705.161 2341.71 701.397C2331.77 697.703 2323.78 692.732 2317.74 686.482C2311.7 680.232 2307.51 673.307 2305.17 665.708L2339.9 657.292C2341.46 660.488 2343.74 663.648 2346.72 666.773C2349.7 669.969 2353.71 672.597 2358.76 674.657C2363.87 676.787 2370.3 677.853 2378.04 677.853C2388.98 677.853 2398.03 675.189 2405.21 669.863C2412.38 664.607 2415.97 655.942 2415.97 643.868V612.867H2414.05C2412.06 616.844 2409.15 620.928 2405.31 625.118C2401.55 629.309 2396.54 632.824 2390.29 635.665C2384.11 638.506 2376.33 639.927 2366.96 639.927C2354.39 639.927 2342.99 636.979 2332.76 631.084C2322.61 625.118 2314.51 616.24 2308.47 604.451C2302.51 592.59 2299.52 577.746 2299.52 559.919C2299.52 541.951 2302.51 526.787 2308.47 514.429C2314.51 502 2322.64 492.59 2332.87 486.198C2343.1 479.735 2354.5 476.503 2367.07 476.503C2376.65 476.503 2384.54 478.137 2390.72 481.404C2396.97 484.6 2401.94 488.471 2405.63 493.016C2409.32 497.49 2412.13 501.716 2414.05 505.694H2416.18V478.634H2454.21V644.934C2454.21 658.925 2450.87 670.502 2444.2 679.664C2437.52 688.826 2428.39 695.679 2416.82 700.225C2405.24 704.77 2392.1 707.043 2377.4 707.043ZM2377.72 609.671C2385.89 609.671 2392.85 607.682 2398.6 603.705C2404.35 599.728 2408.72 594.01 2411.7 586.553C2414.69 579.096 2416.18 570.147 2416.18 559.706C2416.18 549.408 2414.69 540.388 2411.7 532.647C2408.79 524.905 2404.46 518.904 2398.71 514.642C2393.02 510.31 2386.03 508.144 2377.72 508.144C2369.13 508.144 2361.95 510.381 2356.2 514.855C2350.45 519.33 2346.11 525.473 2343.2 533.286C2340.29 541.027 2338.83 549.834 2338.83 559.706C2338.83 569.721 2340.29 578.492 2343.2 586.02C2346.19 593.478 2350.55 599.302 2356.31 603.492C2362.13 607.611 2369.27 609.671 2377.72 609.671Z" fill="#8A2283"/>
<path d="M2517.71 703.634C2512.45 703.634 2507.58 703.208 2503.11 702.355C2498.71 701.574 2495.19 700.651 2492.56 699.586L2501.51 669.543C2507.12 671.176 2512.13 671.958 2516.53 671.887C2520.94 671.816 2524.81 670.431 2528.15 667.732C2531.55 665.104 2534.43 660.701 2536.77 654.522L2540.08 645.679L2480.74 478.634H2521.65L2559.36 602.213H2561.06L2598.88 478.634H2639.9L2574.38 662.086C2571.33 670.75 2567.28 678.172 2562.24 684.351C2557.19 690.601 2551.01 695.36 2543.7 698.627C2536.46 701.965 2527.79 703.634 2517.71 703.634Z" fill="#8A2283"/>
<path d="M1111.1 213.199C1111.1 236.707 1106.69 256.842 1097.89 273.604C1089.15 290.294 1077.22 303.078 1062.09 311.956C1047.03 320.834 1029.95 325.273 1010.85 325.273C991.743 325.273 974.626 320.834 959.498 311.956C944.441 303.007 932.51 290.188 923.703 273.497C914.967 256.736 910.599 236.636 910.599 213.199C910.599 189.69 914.967 169.591 923.703 152.901C932.51 136.139 944.441 123.32 959.498 114.442C974.626 105.564 991.743 101.125 1010.85 101.125C1029.95 101.125 1047.03 105.564 1062.09 114.442C1077.22 123.32 1089.15 136.139 1097.89 152.901C1106.69 169.591 1111.1 189.69 1111.1 213.199ZM1071.36 213.199C1071.36 196.651 1068.77 182.695 1063.58 171.331C1058.47 159.896 1051.37 151.267 1042.28 145.443C1033.18 139.548 1022.71 136.601 1010.85 136.601C998.987 136.601 988.511 139.548 979.42 145.443C970.329 151.267 963.191 159.896 958.007 171.331C952.893 182.695 950.336 196.651 950.336 213.199C950.336 229.747 952.893 243.739 958.007 255.173C963.191 266.537 970.329 275.166 979.42 281.061C988.511 286.885 998.987 289.797 1010.85 289.797C1022.71 289.797 1033.18 286.885 1042.28 281.061C1051.37 275.166 1058.47 266.537 1063.58 255.173C1068.77 243.739 1071.36 229.747 1071.36 213.199Z" fill="#8A2283"/>
<path d="M1146.76 383.653V158.653H1184.68V185.713H1186.92C1188.91 181.736 1191.72 177.51 1195.34 173.036C1198.96 168.49 1203.86 164.619 1210.04 161.423C1216.22 158.156 1224.1 156.523 1233.69 156.523C1246.33 156.523 1257.73 159.754 1267.89 166.217C1278.12 172.609 1286.21 182.091 1292.18 194.662C1298.21 207.162 1301.23 222.503 1301.23 240.685C1301.23 258.653 1298.29 273.923 1292.39 286.494C1286.5 299.065 1278.47 308.653 1268.31 315.259C1258.16 321.864 1246.65 325.166 1233.8 325.166C1224.42 325.166 1216.64 323.604 1210.47 320.479C1204.29 317.354 1199.32 313.589 1195.55 309.186C1191.86 304.712 1188.98 300.486 1186.92 296.509H1185.32V383.653H1146.76ZM1184.58 240.472C1184.58 251.054 1186.07 260.322 1189.05 268.277C1192.11 276.232 1196.47 282.446 1202.16 286.92C1207.91 291.324 1214.87 293.526 1223.04 293.526C1231.56 293.526 1238.7 291.253 1244.45 286.707C1250.2 282.091 1254.54 275.805 1257.45 267.851C1260.43 259.825 1261.92 250.699 1261.92 240.472C1261.92 230.315 1260.47 221.295 1257.55 213.412C1254.64 205.528 1250.31 199.349 1244.56 194.875C1238.8 190.401 1231.63 188.163 1223.04 188.163C1214.8 188.163 1207.8 190.33 1202.05 194.662C1196.3 198.994 1191.93 205.067 1188.95 212.879C1186.03 220.692 1184.58 229.889 1184.58 240.472Z" fill="#8A2283"/>
<path d="M1406.7 325.486C1390.3 325.486 1376.13 322.077 1364.19 315.259C1352.33 308.369 1343.21 298.639 1336.82 286.068C1330.42 273.426 1327.23 258.547 1327.23 241.43C1327.23 224.598 1330.42 209.825 1336.82 197.112C1343.28 184.328 1352.3 174.385 1363.88 167.283C1375.45 160.109 1389.05 156.523 1404.68 156.523C1414.76 156.523 1424.28 158.156 1433.23 161.423C1442.25 164.619 1450.2 169.591 1457.09 176.338C1464.05 183.085 1469.52 191.679 1473.5 202.119C1477.48 212.489 1479.46 224.847 1479.46 239.193V251.018H1345.34V225.024H1442.5C1442.43 217.638 1440.83 211.068 1437.7 205.315C1434.58 199.491 1430.21 194.911 1424.6 191.572C1419.06 188.234 1412.6 186.565 1405.21 186.565C1397.33 186.565 1390.4 188.483 1384.44 192.318C1378.47 196.082 1373.82 201.054 1370.48 207.233C1367.21 213.341 1365.54 220.053 1365.47 227.368V250.06C1365.47 259.577 1367.21 267.744 1370.69 274.563C1374.17 281.31 1379.04 286.494 1385.29 290.116C1391.54 293.668 1398.85 295.443 1407.23 295.443C1412.85 295.443 1417.92 294.662 1422.47 293.099C1427.01 291.466 1430.96 289.087 1434.29 285.962C1437.63 282.837 1440.15 278.966 1441.86 274.349L1477.87 278.398C1475.59 287.915 1471.26 296.224 1464.87 303.327C1458.55 310.358 1450.45 315.827 1440.58 319.733C1430.71 323.568 1419.41 325.486 1406.7 325.486Z" fill="#8A2283"/>
<path d="M1550.66 226.409V322.29H1512.09V158.653H1548.95V186.459H1550.87C1554.63 177.297 1560.63 170.017 1568.87 164.619C1577.18 159.222 1587.45 156.523 1599.66 156.523C1610.95 156.523 1620.79 158.938 1629.17 163.767C1637.62 168.597 1644.16 175.592 1648.77 184.754C1653.46 193.916 1655.77 205.031 1655.7 218.099V322.29H1617.13V224.065C1617.13 213.128 1614.29 204.57 1608.61 198.391C1603 192.212 1595.22 189.122 1585.28 189.122C1578.53 189.122 1572.53 190.614 1567.28 193.597C1562.09 196.509 1558.01 200.734 1555.02 206.274C1552.11 211.814 1550.66 218.526 1550.66 226.409Z" fill="#8A2283"/>
</g>
<g clip-path="url(#clip0_396_174)">
<path d="M267.99 102.211C119.99 102.211 0 222.191 0 370.211C0 452.061 36.71 525.321 94.54 574.491L327.37 108.831C308.27 104.501 288.4 102.211 267.99 102.211Z" fill="#8A2283"/>
<path d="M515.66 267.67C528.75 299.25 535.99 333.89 535.99 370.21C535.99 512.26 425.47 628.47 285.73 637.6H702.44L380.64 0L63.6396 637.6H267.99V267.67H515.66Z" fill="#00BDAA"/>
<path d="M516.81 267.67L702.08 638.2H267.99V742.06H747.62V267.66H516.81V267.67Z" fill="#8A2283"/>
</g>
<defs>
<clipPath id="clip0_396_174">
<rect width="747.62" height="742.06" fill="white"/>
</clipPath>
</defs>
</svg>
