<svg width="3618" height="912" viewBox="0 0 3618 912" fill="none" xmlns="http://www.w3.org/2000/svg">
<path d="M987.353 879.376V774.526H1011.17C1018.71 774.526 1025.05 776.024 1030.19 779.02C1035.33 782.016 1039.45 786.035 1042.55 791.078C1045.69 796.07 1047.97 801.687 1049.36 807.928C1050.76 814.119 1051.46 820.46 1051.46 826.951C1051.46 832.992 1050.81 839.084 1049.51 845.225C1048.27 851.366 1046.09 857.033 1043 862.226C1039.95 867.368 1035.78 871.512 1030.49 874.658C1025.25 877.803 1018.61 879.376 1010.57 879.376H987.353ZM997.838 869.939H1010.42C1016.31 869.939 1021.2 868.691 1025.1 866.195C1028.99 863.649 1032.06 860.278 1034.31 856.084C1036.56 851.89 1038.16 847.272 1039.1 842.229C1040.05 837.137 1040.53 832.044 1040.53 826.951C1040.53 821.509 1040 816.241 1038.95 811.149C1037.96 806.006 1036.31 801.388 1034.01 797.294C1031.76 793.199 1028.84 789.954 1025.25 787.558C1021.65 785.161 1017.26 783.963 1012.07 783.963H997.838V869.939Z" fill="#046699"/>
<path d="M1111.56 881.173C1104.32 881.173 1098.13 879.326 1092.98 875.631C1087.89 871.937 1084 867.044 1081.3 860.952C1078.6 854.861 1077.26 848.221 1077.26 841.031C1077.26 832.543 1078.68 825.328 1081.52 819.387C1084.37 813.396 1088.36 808.852 1093.51 805.756C1098.65 802.611 1104.67 801.038 1111.56 801.038C1117.2 801.038 1122.39 802.336 1127.13 804.933C1131.88 807.529 1135.67 811.548 1138.52 816.99C1141.41 822.433 1142.86 829.448 1142.86 838.035C1142.86 838.834 1142.84 839.858 1142.79 841.106C1142.79 842.304 1142.71 843.727 1142.56 845.375H1085.64V835.938H1132.23C1132.23 829.098 1131.1 823.856 1128.86 820.211C1126.61 816.516 1123.86 813.97 1120.62 812.572C1117.42 811.174 1114.4 810.475 1111.56 810.475C1103.57 810.475 1097.65 813.021 1093.81 818.114C1089.96 823.206 1088.04 829.997 1088.04 838.485C1088.04 848.72 1090.16 856.783 1094.41 862.675C1098.65 868.517 1104.52 871.437 1112.01 871.437C1114.95 871.437 1117.97 870.988 1121.07 870.089C1124.16 869.141 1127.23 867.593 1130.28 865.446L1135.97 872.486C1132.83 874.932 1129.13 877.004 1124.89 878.702C1120.64 880.35 1116.2 881.173 1111.56 881.173Z" fill="#046699"/>
<path d="M1164.16 879.376V802.836H1174.95V815.418L1173.45 814.369C1175.05 810.075 1177.07 806.78 1179.52 804.483C1181.96 802.187 1185.13 801.038 1189.03 801.038C1193.52 801.038 1197.02 802.311 1199.51 804.858C1202.01 807.354 1203.71 810.075 1204.6 813.021C1206.35 809.726 1208.65 806.905 1211.5 804.558C1214.34 802.212 1217.79 801.038 1221.83 801.038C1228.27 801.038 1232.99 803.085 1235.98 807.179C1239.03 811.274 1240.55 817.664 1240.55 826.352V879.376H1229.77V832.493C1229.77 825.204 1229.17 819.761 1227.97 816.167C1226.77 812.572 1224.08 810.774 1219.88 810.774C1216.89 810.774 1214.49 811.823 1212.69 813.92C1210.95 816.017 1209.67 818.788 1208.87 822.233C1208.12 825.678 1207.75 829.448 1207.75 833.542V879.376H1196.97V830.546C1196.97 827.201 1196.77 824.03 1196.37 821.035C1196.02 817.989 1195.17 815.517 1193.82 813.62C1192.52 811.723 1190.48 810.774 1187.68 810.774C1184.78 810.774 1182.39 811.823 1180.49 813.92C1178.64 816.017 1177.24 818.788 1176.3 822.233C1175.4 825.678 1174.95 829.448 1174.95 833.542V879.376H1164.16Z" fill="#046699"/>
<path d="M1294.66 881.173C1287.62 881.173 1281.45 879.626 1276.16 876.53C1270.87 873.385 1266.72 868.841 1263.73 862.9C1260.78 856.908 1259.31 849.669 1259.31 841.181C1259.31 832.793 1260.78 825.603 1263.73 819.612C1266.72 813.62 1270.87 809.027 1276.16 805.831C1281.45 802.636 1287.62 801.038 1294.66 801.038C1301.7 801.038 1307.86 802.611 1313.16 805.756C1318.5 808.852 1322.64 813.396 1325.59 819.387C1328.53 825.328 1330.01 832.543 1330.01 841.031C1330.01 849.419 1328.53 856.609 1325.59 862.6C1322.64 868.591 1318.5 873.185 1313.16 876.38C1307.86 879.576 1301.7 881.173 1294.66 881.173ZM1294.66 871.737C1302.4 871.737 1308.39 869.016 1312.63 863.574C1316.93 858.131 1319.07 850.617 1319.07 841.031C1319.07 831.495 1317 824.03 1312.86 818.638C1308.76 813.196 1302.7 810.475 1294.66 810.475C1286.67 810.475 1280.6 813.096 1276.46 818.338C1272.31 823.581 1270.24 831.195 1270.24 841.181C1270.24 850.667 1272.31 858.131 1276.46 863.574C1280.6 869.016 1286.67 871.737 1294.66 871.737Z" fill="#046699"/>
<path d="M1388.75 881.173C1379.12 881.173 1371.5 877.703 1365.91 870.763C1360.37 863.773 1357.6 853.912 1357.6 841.181C1357.6 832.793 1358.87 825.603 1361.42 819.612C1363.96 813.62 1367.63 809.027 1372.43 805.831C1377.27 802.636 1383.11 801.038 1389.95 801.038C1395.89 801.038 1401.09 802.411 1405.53 805.157C1409.97 807.903 1413.27 811.873 1415.42 817.065L1405.83 820.81C1404.58 817.864 1402.66 815.418 1400.06 813.47C1397.47 811.473 1393.95 810.475 1389.5 810.475C1381.96 810.475 1376.57 813.246 1373.33 818.788C1370.13 824.28 1368.53 831.744 1368.53 841.181C1368.53 850.817 1370.18 858.331 1373.48 863.723C1376.77 869.066 1382.01 871.737 1389.2 871.737C1393.55 871.737 1397.27 870.688 1400.36 868.591C1403.46 866.494 1405.68 863.649 1407.03 860.054L1416.46 863.649C1414.62 869.041 1411.22 873.31 1406.28 876.455C1401.34 879.601 1395.49 881.173 1388.75 881.173Z" fill="#046699"/>
<path d="M1440.76 879.376V869.939H1456.64V812.272H1440.76V802.836H1466.97V820.061L1466.08 817.964C1467.87 814.419 1470.52 811.398 1474.01 808.902C1477.51 806.356 1481.33 804.408 1485.47 803.06C1489.67 801.712 1493.69 801.038 1497.53 801.038C1501.42 801.038 1504.72 801.363 1507.42 802.012C1510.11 802.661 1512.21 803.485 1513.71 804.483V830.097H1503.07V807.629L1505.62 812.871C1504.42 812.472 1503.1 812.197 1501.65 812.047C1500.2 811.898 1498.58 811.823 1496.78 811.823C1492.14 811.823 1487.57 812.647 1483.08 814.294C1478.58 815.892 1474.86 818.289 1471.92 821.484C1469.02 824.679 1467.57 828.649 1467.57 833.392V869.939H1490.49V879.376H1440.76Z" fill="#046699"/>
<path d="M1566.76 881.173C1561.42 881.173 1556.73 880.225 1552.68 878.327C1548.64 876.38 1545.47 873.484 1543.17 869.64C1540.92 865.795 1539.8 861.002 1539.8 855.261C1539.8 849.369 1541.15 844.576 1543.85 840.881C1546.59 837.137 1550.14 834.39 1554.48 832.643C1558.87 830.846 1563.57 829.947 1568.56 829.947C1572.25 829.947 1575.82 830.346 1579.27 831.145C1582.76 831.894 1586.38 833.292 1590.13 835.339V828.898C1590.13 823.756 1589.33 819.836 1587.73 817.14C1586.13 814.444 1584.04 812.622 1581.44 811.673C1578.9 810.674 1576.2 810.175 1573.35 810.175C1569.31 810.175 1565.01 811.074 1560.47 812.871C1555.98 814.619 1552.18 816.466 1549.09 818.413L1546.09 809.426C1549.34 807.479 1553.48 805.607 1558.52 803.809C1563.57 801.962 1568.86 801.038 1574.4 801.038C1577.15 801.038 1579.99 801.413 1582.94 802.162C1585.89 802.911 1588.63 804.259 1591.18 806.206C1593.77 808.103 1595.87 810.774 1597.47 814.219C1599.07 817.664 1599.87 822.108 1599.87 827.55V879.376H1590.13V871.887C1587.08 874.633 1583.56 876.88 1579.57 878.627C1575.62 880.325 1571.36 881.173 1566.76 881.173ZM1567.81 872.036C1572.9 872.036 1577.32 870.788 1581.07 868.292C1584.81 865.746 1587.83 863.049 1590.13 860.203V845.375C1587.68 843.727 1584.59 842.279 1580.84 841.031C1577.1 839.733 1573.35 839.084 1569.61 839.084C1564.22 839.084 1559.52 840.407 1555.53 843.053C1551.53 845.649 1549.54 849.718 1549.54 855.261C1549.54 860.253 1551.11 864.298 1554.26 867.393C1557.45 870.489 1561.97 872.036 1567.81 872.036Z" fill="#046699"/>
<path d="M1670.75 881.173C1664.25 881.173 1659.61 879.476 1656.82 876.081C1654.02 872.686 1652.62 868.292 1652.62 862.9V812.272H1634.5V802.836H1652.62V776.473L1663.11 771.231V802.836H1688.72V812.272H1663.11V858.406C1663.11 860.853 1663.33 863.049 1663.78 864.997C1664.28 866.944 1665.33 868.492 1666.93 869.64C1668.52 870.738 1670.99 871.288 1674.34 871.288C1678.33 871.288 1681.4 870.788 1683.55 869.79C1685.7 868.741 1687.47 867.743 1688.87 866.794L1687.67 877.728C1685.72 878.777 1683.53 879.601 1681.08 880.2C1678.63 880.849 1675.19 881.173 1670.75 881.173Z" fill="#046699"/>
<path d="M1753.31 876.38V802.836H1763.79V876.38H1753.31ZM1732.19 879.376V869.939H1784.91V879.376H1732.19ZM1732.19 812.272V802.836H1758.55V812.272H1732.19ZM1758.55 787.108C1756.6 787.108 1754.96 786.459 1753.61 785.161C1752.31 783.813 1751.66 782.165 1751.66 780.218C1751.66 778.171 1752.31 776.473 1753.61 775.125C1754.96 773.727 1756.6 773.028 1758.55 773.028C1760.6 773.028 1762.25 773.727 1763.49 775.125C1764.79 776.473 1765.44 778.171 1765.44 780.218C1765.44 782.165 1764.79 783.813 1763.49 785.161C1762.25 786.459 1760.6 787.108 1758.55 787.108Z" fill="#046699"/>
<path d="M1821.04 879.376V872.935L1861.93 812.272H1824.04V802.836H1875.86V809.127L1834.67 869.939H1875.71V879.376H1821.04Z" fill="#046699"/>
<path d="M1937.91 876.38V802.836H1948.39V876.38H1937.91ZM1916.79 879.376V869.939H1969.51V879.376H1916.79ZM1916.79 812.272V802.836H1943.15V812.272H1916.79ZM1943.15 787.108C1941.2 787.108 1939.55 786.459 1938.21 785.161C1936.91 783.813 1936.26 782.165 1936.26 780.218C1936.26 778.171 1936.91 776.473 1938.21 775.125C1939.55 773.727 1941.2 773.028 1943.15 773.028C1945.2 773.028 1946.84 773.727 1948.09 775.125C1949.39 776.473 1950.04 778.171 1950.04 780.218C1950.04 782.165 1949.39 783.813 1948.09 785.161C1946.84 786.459 1945.2 787.108 1943.15 787.108Z" fill="#046699"/>
<path d="M2003.39 879.376V802.836H2013.88V815.867L2012.08 814.07C2013.68 811.124 2015.58 808.702 2017.77 806.805C2019.97 804.858 2022.47 803.41 2025.26 802.461C2028.06 801.513 2031.16 801.038 2034.55 801.038C2040.99 801.038 2046.31 802.286 2050.5 804.783C2054.7 807.229 2057.79 811.099 2059.79 816.391C2061.84 821.684 2062.86 828.549 2062.86 836.987V879.376H2052.37V832.643C2052.37 824.555 2050.58 818.838 2046.98 815.493C2043.44 812.147 2038.99 810.475 2033.65 810.475C2029.76 810.475 2026.31 811.149 2023.32 812.497C2020.37 813.845 2018.05 816.117 2016.35 819.312C2014.7 822.458 2013.88 826.801 2013.88 832.343V879.376H2003.39Z" fill="#046699"/>
<path d="M2119.21 911.28L2114.42 903.042C2122.71 902.593 2129.02 901.394 2133.37 899.447C2137.71 897.5 2140.68 895.029 2142.28 892.033C2143.88 889.087 2144.67 885.867 2144.67 882.372V870.688C2142.53 873.884 2139.76 876.43 2136.36 878.327C2133.02 880.225 2128.45 881.173 2122.66 881.173C2116.96 881.173 2111.65 879.676 2106.7 876.68C2101.81 873.684 2097.84 869.216 2094.8 863.274C2091.8 857.333 2090.3 849.918 2090.3 841.031C2090.3 832.643 2091.7 825.478 2094.5 819.537C2097.34 813.545 2101.24 808.977 2106.18 805.831C2111.12 802.636 2116.81 801.038 2123.25 801.038C2127.5 801.038 2131.04 801.587 2133.89 802.686C2136.79 803.734 2139.08 804.983 2140.78 806.431C2142.53 807.829 2143.83 809.027 2144.67 810.025V802.836H2155.16V878.178C2155.16 884.469 2154.16 889.711 2152.16 893.905C2150.22 898.099 2147.54 901.419 2144.15 903.866C2140.8 906.362 2136.99 908.16 2132.69 909.258C2128.4 910.407 2123.9 911.081 2119.21 911.28ZM2125.05 871.737C2128.75 871.737 2132.42 870.614 2136.06 868.367C2139.71 866.07 2142.58 862.95 2144.67 859.005V822.158C2142.53 818.313 2139.53 815.418 2135.69 813.47C2131.89 811.473 2128.35 810.475 2125.05 810.475C2117.11 810.475 2111.15 813.121 2107.15 818.413C2103.21 823.656 2101.24 831.195 2101.24 841.031C2101.24 850.817 2103.51 858.381 2108.05 863.723C2112.59 869.066 2118.26 871.737 2125.05 871.737Z" fill="#046699"/>
<path d="M2271.16 879.376L2305.76 774.526H2313.84L2348.74 879.376H2338.11L2312.8 801.038C2312.65 800.539 2312.35 799.665 2311.9 798.417C2311.5 797.119 2311.07 795.821 2310.62 794.523C2310.22 793.224 2309.95 792.251 2309.8 791.602C2309.65 792.251 2309.38 793.224 2308.98 794.523C2308.58 795.821 2308.18 797.094 2307.78 798.342C2307.43 799.59 2307.15 800.489 2306.95 801.038L2282.09 879.376H2271.16ZM2287.03 852.265L2290.18 842.978H2329.57L2332.72 852.265H2287.03Z" fill="#046699"/>
<path d="M2397.01 879.376V774.526H2407.49V879.376H2397.01ZM2371.99 879.376V869.49H2432.51V879.376H2371.99ZM2371.99 784.412V774.526H2432.51V784.412H2371.99Z" fill="#046699"/>
<path d="M2577.41 879.376V812.272H2561.53V802.836H2577.41V791.302C2577.41 787.757 2577.94 784.811 2578.98 782.465C2580.08 780.068 2581.58 778.171 2583.48 776.773C2585.38 775.325 2587.55 774.302 2589.99 773.702C2592.44 773.053 2595.04 772.729 2597.78 772.729C2601.33 772.729 2604.37 773.103 2606.92 773.852C2609.52 774.601 2611.81 775.425 2613.81 776.324V785.76C2611.81 784.762 2609.64 783.963 2607.29 783.364C2604.95 782.764 2602.13 782.465 2598.83 782.465C2595.29 782.465 2592.74 782.939 2591.19 783.888C2589.69 784.836 2588.77 786.11 2588.42 787.707C2588.07 789.305 2587.9 791.053 2587.9 792.95V802.836H2608.27V812.272H2587.9V879.376H2577.41ZM2561.53 879.376V869.939H2608.27V879.376H2561.53Z" fill="#046699"/>
<path d="M2679.15 881.173C2672.11 881.173 2665.94 879.626 2660.65 876.53C2655.36 873.385 2651.21 868.841 2648.22 862.9C2645.27 856.908 2643.8 849.669 2643.8 841.181C2643.8 832.793 2645.27 825.603 2648.22 819.612C2651.21 813.62 2655.36 809.027 2660.65 805.831C2665.94 802.636 2672.11 801.038 2679.15 801.038C2686.19 801.038 2692.35 802.611 2697.65 805.756C2702.99 808.852 2707.13 813.396 2710.08 819.387C2713.02 825.328 2714.5 832.543 2714.5 841.031C2714.5 849.419 2713.02 856.609 2710.08 862.6C2707.13 868.591 2702.99 873.185 2697.65 876.38C2692.35 879.576 2686.19 881.173 2679.15 881.173ZM2679.15 871.737C2686.89 871.737 2692.88 869.016 2697.12 863.574C2701.42 858.131 2703.56 850.617 2703.56 841.031C2703.56 831.495 2701.49 824.03 2697.35 818.638C2693.25 813.196 2687.19 810.475 2679.15 810.475C2671.16 810.475 2665.09 813.096 2660.95 818.338C2656.8 823.581 2654.73 831.195 2654.73 841.181C2654.73 850.667 2656.8 858.131 2660.95 863.574C2665.09 869.016 2671.16 871.737 2679.15 871.737Z" fill="#046699"/>
<path d="M2732.95 879.376V869.939H2748.83V812.272H2732.95V802.836H2759.16V820.061L2758.27 817.964C2760.06 814.419 2762.71 811.398 2766.2 808.902C2769.7 806.356 2773.52 804.408 2777.66 803.06C2781.86 801.712 2785.88 801.038 2789.72 801.038C2793.62 801.038 2796.91 801.363 2799.61 802.012C2802.3 802.661 2804.4 803.485 2805.9 804.483V830.097H2795.26V807.629L2797.81 812.871C2796.61 812.472 2795.29 812.197 2793.84 812.047C2792.39 811.898 2790.77 811.823 2788.97 811.823C2784.33 811.823 2779.76 812.647 2775.27 814.294C2770.77 815.892 2767.05 818.289 2764.11 821.484C2761.21 824.679 2759.76 828.649 2759.76 833.392V869.939H2782.68V879.376H2732.95Z" fill="#046699"/>
<path d="M2925.79 879.376V774.526H2953.2C2961.39 774.526 2967.8 775.874 2972.45 778.57C2977.14 781.217 2980.44 784.637 2982.33 788.831C2984.28 793.025 2985.25 797.393 2985.25 801.937C2985.25 807.229 2983.73 811.773 2980.69 815.567C2977.69 819.362 2973.72 822.208 2968.78 824.105C2974.47 825.503 2979.26 828.374 2983.16 832.718C2987.05 837.062 2989 842.828 2989 850.018C2989 853.563 2988.45 857.083 2987.35 860.578C2986.3 864.023 2984.51 867.168 2981.96 870.014C2979.41 872.86 2975.99 875.132 2971.7 876.83C2967.4 878.527 2962.04 879.376 2955.6 879.376H2925.79ZM2936.27 869.939H2957.39C2963.14 869.939 2967.58 869.016 2970.73 867.168C2973.92 865.321 2976.14 862.95 2977.39 860.054C2978.64 857.158 2979.26 854.112 2979.26 850.917C2979.26 847.222 2978.51 843.752 2977.02 840.507C2975.52 837.211 2972.82 834.565 2968.93 832.568C2965.08 830.521 2959.59 829.497 2952.45 829.497H2936.27V869.939ZM2936.27 820.361H2950.65C2958.89 820.361 2965.08 818.663 2969.23 815.268C2973.42 811.873 2975.52 807.329 2975.52 801.637C2975.52 798.791 2974.94 796.02 2973.8 793.324C2972.7 790.578 2970.6 788.331 2967.5 786.584C2964.41 784.836 2959.94 783.963 2954.1 783.963H2936.27V820.361Z" fill="#046699"/>
<path d="M3045.5 876.38V802.836H3055.98V876.38H3045.5ZM3024.38 879.376V869.939H3077.1V879.376H3024.38ZM3024.38 812.272V802.836H3050.74V812.272H3024.38ZM3050.74 787.108C3048.79 787.108 3047.15 786.459 3045.8 785.161C3044.5 783.813 3043.85 782.165 3043.85 780.218C3043.85 778.171 3044.5 776.473 3045.8 775.125C3047.15 773.727 3048.79 773.028 3050.74 773.028C3052.79 773.028 3054.44 773.727 3055.68 775.125C3056.98 776.473 3057.63 778.171 3057.63 780.218C3057.63 782.165 3056.98 783.813 3055.68 785.161C3054.44 786.459 3052.79 787.108 3050.74 787.108Z" fill="#046699"/>
<path d="M3140.64 881.173C3133.6 881.173 3127.44 879.626 3122.15 876.53C3116.85 873.385 3112.71 868.841 3109.71 862.9C3106.77 856.908 3105.3 849.669 3105.3 841.181C3105.3 832.793 3106.77 825.603 3109.71 819.612C3112.71 813.62 3116.85 809.027 3122.15 805.831C3127.44 802.636 3133.6 801.038 3140.64 801.038C3147.68 801.038 3153.85 802.611 3159.14 805.756C3164.49 808.852 3168.63 813.396 3171.58 819.387C3174.52 825.328 3175.99 832.543 3175.99 841.031C3175.99 849.419 3174.52 856.609 3171.58 862.6C3168.63 868.591 3164.49 873.185 3159.14 876.38C3153.85 879.576 3147.68 881.173 3140.64 881.173ZM3140.64 871.737C3148.38 871.737 3154.38 869.016 3158.62 863.574C3162.91 858.131 3165.06 850.617 3165.06 841.031C3165.06 831.495 3162.99 824.03 3158.84 818.638C3154.75 813.196 3148.68 810.475 3140.64 810.475C3132.66 810.475 3126.59 813.096 3122.45 818.338C3118.3 823.581 3116.23 831.195 3116.23 841.181C3116.23 850.667 3118.3 858.131 3122.45 863.574C3126.59 869.016 3132.66 871.737 3140.64 871.737Z" fill="#046699"/>
<path d="M3227.7 879.376V776.324L3238.19 771.231V879.376H3227.7ZM3206.58 879.376V869.939H3259.31V879.376H3206.58ZM3208.98 780.667L3204.33 771.231H3238.19L3232.64 780.667H3208.98Z" fill="#046699"/>
<path d="M3325.24 881.173C3318.2 881.173 3312.04 879.626 3306.74 876.53C3301.45 873.385 3297.31 868.841 3294.31 862.9C3291.37 856.908 3289.89 849.669 3289.89 841.181C3289.89 832.793 3291.37 825.603 3294.31 819.612C3297.31 813.62 3301.45 809.027 3306.74 805.831C3312.04 802.636 3318.2 801.038 3325.24 801.038C3332.28 801.038 3338.45 802.611 3343.74 805.756C3349.08 808.852 3353.23 813.396 3356.17 819.387C3359.12 825.328 3360.59 832.543 3360.59 841.031C3360.59 849.419 3359.12 856.609 3356.17 862.6C3353.23 868.591 3349.08 873.185 3343.74 876.38C3338.45 879.576 3332.28 881.173 3325.24 881.173ZM3325.24 871.737C3332.98 871.737 3338.97 869.016 3343.22 863.574C3347.51 858.131 3349.66 850.617 3349.66 841.031C3349.66 831.495 3347.59 824.03 3343.44 818.638C3339.35 813.196 3333.28 810.475 3325.24 810.475C3317.25 810.475 3311.19 813.096 3307.04 818.338C3302.9 823.581 3300.83 831.195 3300.83 841.181C3300.83 850.667 3302.9 858.131 3307.04 863.574C3311.19 869.016 3317.25 871.737 3325.24 871.737Z" fill="#046699"/>
<path d="M3411.4 911.28L3406.61 903.042C3414.9 902.593 3421.21 901.394 3425.56 899.447C3429.9 897.5 3432.87 895.029 3434.47 892.033C3436.07 889.087 3436.87 885.867 3436.87 882.372V870.688C3434.72 873.884 3431.95 876.43 3428.55 878.327C3425.21 880.225 3420.64 881.173 3414.85 881.173C3409.15 881.173 3403.84 879.676 3398.89 876.68C3394 873.684 3390.03 869.216 3386.99 863.274C3383.99 857.333 3382.49 849.918 3382.49 841.031C3382.49 832.643 3383.89 825.478 3386.69 819.537C3389.53 813.545 3393.43 808.977 3398.37 805.831C3403.31 802.636 3409 801.038 3415.45 801.038C3419.69 801.038 3423.23 801.587 3426.08 802.686C3428.98 803.734 3431.27 804.983 3432.97 806.431C3434.72 807.829 3436.02 809.027 3436.87 810.025V802.836H3447.35V878.178C3447.35 884.469 3446.35 889.711 3444.35 893.905C3442.41 898.099 3439.74 901.419 3436.34 903.866C3433 906.362 3429.18 908.16 3424.88 909.258C3420.59 910.407 3416.09 911.081 3411.4 911.28ZM3417.24 871.737C3420.94 871.737 3424.61 870.614 3428.25 868.367C3431.9 866.07 3434.77 862.95 3436.87 859.005V822.158C3434.72 818.313 3431.72 815.418 3427.88 813.47C3424.08 811.473 3420.54 810.475 3417.24 810.475C3409.3 810.475 3403.34 813.121 3399.34 818.413C3395.4 823.656 3393.43 831.195 3393.43 841.031C3393.43 850.817 3395.7 858.381 3400.24 863.723C3404.79 869.066 3410.45 871.737 3417.24 871.737Z" fill="#046699"/>
<path d="M3493.37 908.434L3504.75 876.979L3476.74 802.836H3487.37L3506.7 857.208C3507.1 858.356 3507.5 859.579 3507.89 860.877C3508.34 862.126 3508.79 863.499 3509.24 864.997C3509.69 863.649 3510.14 862.325 3510.59 861.027C3511.04 859.729 3511.49 858.456 3511.94 857.208L3531.56 802.836H3542.79L3503.7 908.434H3493.37Z" fill="#046699"/>
<path d="M1126.76 579.086C1098.77 579.086 1074.25 572.931 1053.2 560.621C1032.15 548.112 1015.68 530.044 1003.76 506.417C992.048 482.592 986.191 453.802 986.191 420.049C986.191 386.693 992.048 358.103 1003.76 334.277C1015.68 310.451 1032.15 292.185 1053.2 279.478C1074.25 266.771 1098.77 260.417 1126.76 260.417C1154.76 260.417 1179.28 266.672 1200.32 279.18C1221.57 291.49 1238.05 309.558 1249.76 333.384C1261.48 357.011 1267.33 385.701 1267.33 419.454C1267.33 452.81 1261.48 481.4 1249.76 505.226C1238.05 529.052 1221.57 547.318 1200.32 560.025C1179.28 572.732 1154.76 579.086 1126.76 579.086ZM1126.76 541.56C1157.54 541.56 1181.36 530.739 1198.24 509.098C1215.31 487.456 1223.85 457.575 1223.85 419.454C1223.85 381.531 1215.61 351.848 1199.13 330.405C1182.85 308.764 1158.73 297.943 1126.76 297.943C1094.99 297.943 1070.87 308.367 1054.39 329.214C1037.91 350.061 1029.67 380.34 1029.67 420.049C1029.67 457.773 1037.91 487.456 1054.39 509.098C1070.87 530.739 1094.99 541.56 1126.76 541.56Z" fill="url(#paint0_linear_274_175)"/>
<path d="M1363.95 692.853V267.565H1405.65V294.965C1415.58 286.03 1426.89 278.088 1439.6 271.139C1452.31 263.991 1469.38 260.417 1490.82 260.417C1518.42 260.417 1542.05 267.069 1561.71 280.371C1581.56 293.476 1596.75 311.94 1607.27 335.766C1617.8 359.592 1623.06 387.488 1623.06 419.454C1623.06 453.405 1617.5 482.294 1606.38 506.12C1595.26 529.747 1579.87 547.814 1560.22 560.323C1540.76 572.831 1518.42 579.086 1493.21 579.086C1469.78 579.086 1451.51 575.313 1438.41 567.768C1425.3 560.025 1414.38 551.09 1405.65 540.965V672.006L1363.95 692.853ZM1488.44 541.56C1517.43 541.56 1539.87 531.037 1555.75 509.991C1571.63 488.945 1579.58 458.766 1579.58 419.454C1579.58 382.524 1571.34 353.04 1554.86 331.001C1538.58 308.962 1515.64 297.943 1486.06 297.943C1468.79 297.943 1453.1 302.112 1439 310.451C1425.11 318.592 1413.99 330.108 1405.65 344.999V494.505C1416.17 507.807 1427.98 519.025 1441.09 528.158C1454.19 537.093 1469.98 541.56 1488.44 541.56Z" fill="url(#paint1_linear_274_175)"/>
<path d="M1854.89 579.086C1826.1 579.086 1801.48 571.739 1781.03 557.047C1760.78 542.354 1745.29 522.897 1734.57 498.674C1723.85 474.451 1718.49 448.045 1718.49 419.454C1718.49 385.701 1724.14 357.011 1735.46 333.384C1746.78 309.558 1762.66 291.49 1783.11 279.18C1803.56 266.672 1827.49 260.417 1854.89 260.417C1877.32 260.417 1897.97 265.58 1916.83 275.904C1935.7 286.229 1950.79 302.212 1962.1 323.853C1973.62 345.495 1979.38 373.391 1979.38 407.541C1979.38 410.718 1979.28 414.788 1979.08 419.752C1979.08 424.517 1978.78 430.175 1978.19 436.727H1751.84V399.202H1937.09C1937.09 372.001 1932.62 351.154 1923.68 336.66C1914.75 321.967 1903.83 311.841 1890.92 306.282C1878.22 300.723 1866.2 297.943 1854.89 297.943C1823.12 297.943 1799.59 308.069 1784.3 328.321C1769.02 348.572 1761.37 375.575 1761.37 409.328C1761.37 450.03 1769.81 482.095 1786.69 505.524C1803.56 528.754 1826.89 540.369 1856.67 540.369C1868.39 540.369 1880.4 538.582 1892.71 535.008C1905.02 531.236 1917.23 525.081 1929.34 516.543L1951.98 544.538C1939.47 554.267 1924.78 562.507 1907.9 569.258C1891.02 575.81 1873.35 579.086 1854.89 579.086Z" fill="url(#paint2_linear_274_175)"/>
<path d="M2098.03 571.938V267.565H2139.73V319.386L2132.58 312.238C2138.94 300.524 2146.48 290.894 2155.22 283.35C2163.95 275.606 2173.88 269.848 2185 266.076C2196.12 262.304 2208.43 260.417 2221.93 260.417C2247.54 260.417 2268.69 265.381 2285.36 275.308C2302.04 285.037 2314.35 300.425 2322.29 321.471C2330.43 342.517 2334.5 369.817 2334.5 403.371V571.938H2292.81V386.098C2292.81 353.933 2285.66 331.2 2271.37 317.897C2257.27 304.594 2239.6 297.943 2218.35 297.943C2202.87 297.943 2189.17 300.623 2177.26 305.984C2165.54 311.345 2156.31 320.379 2149.56 333.086C2143.01 345.594 2139.73 362.868 2139.73 384.907V571.938H2098.03Z" fill="url(#paint3_linear_274_175)"/>
<path d="M2575.27 571.938V305.091H2512.13V267.565H2575.27V221.701C2575.27 207.604 2577.35 195.89 2581.52 186.558C2585.89 177.028 2591.85 169.483 2599.39 163.924C2606.94 158.166 2615.57 154.095 2625.3 151.713C2635.03 149.132 2645.36 147.841 2656.28 147.841C2670.37 147.841 2682.48 149.33 2692.61 152.309C2702.94 155.287 2712.07 158.563 2720.01 162.137V199.662C2712.07 195.691 2703.43 192.514 2694.1 190.132C2684.77 187.749 2673.55 186.558 2660.45 186.558C2646.35 186.558 2636.22 188.444 2630.07 192.216C2624.11 195.989 2620.44 201.052 2619.05 207.405C2617.66 213.759 2616.96 220.708 2616.96 228.253V267.565H2697.97V305.091H2616.96V571.938H2575.27ZM2512.13 571.938V534.413H2697.97V571.938H2512.13Z" fill="url(#paint4_linear_274_175)"/>
<path d="M2890.49 579.086C2862.49 579.086 2837.97 572.931 2816.93 560.621C2795.88 548.112 2779.4 530.044 2767.49 506.417C2755.77 482.592 2749.92 453.802 2749.92 420.049C2749.92 386.693 2755.77 358.103 2767.49 334.277C2779.4 310.451 2795.88 292.185 2816.93 279.478C2837.97 266.771 2862.49 260.417 2890.49 260.417C2918.48 260.417 2943 266.672 2964.05 279.18C2985.3 291.49 3001.77 309.558 3013.49 333.384C3025.2 357.011 3031.06 385.701 3031.06 419.454C3031.06 452.81 3025.2 481.4 3013.49 505.226C3001.77 529.052 2985.3 547.318 2964.05 560.025C2943 572.732 2918.48 579.086 2890.49 579.086ZM2890.49 541.56C2921.26 541.56 2945.09 530.739 2961.97 509.098C2979.04 487.456 2987.58 457.575 2987.58 419.454C2987.58 381.531 2979.34 351.848 2962.86 330.405C2946.58 308.764 2922.46 297.943 2890.49 297.943C2858.72 297.943 2834.6 308.367 2818.12 329.214C2801.64 350.061 2793.4 380.34 2793.4 420.049C2793.4 457.773 2801.64 487.456 2818.12 509.098C2834.6 530.739 2858.72 541.56 2890.49 541.56Z" fill="url(#paint5_linear_274_175)"/>
<path d="M3171.16 571.938V162.137L3212.86 141.885V571.938H3171.16ZM3087.18 571.938V534.413H3296.84V571.938H3087.18ZM3096.71 179.41L3078.24 141.885H3212.86L3190.82 179.41H3096.71Z" fill="url(#paint6_linear_274_175)"/>
<path d="M3490.55 579.086C3463.75 579.086 3440.62 572.534 3421.16 559.429C3401.7 546.325 3386.71 527.86 3376.19 504.035C3365.86 480.011 3360.7 451.817 3360.7 419.454C3360.7 386.098 3365.96 357.606 3376.49 333.979C3387.01 310.154 3402 291.986 3421.46 279.478C3440.91 266.771 3463.95 260.417 3490.55 260.417C3511.4 260.417 3528.47 263.296 3541.78 269.054C3555.28 274.812 3566.6 281.463 3575.73 289.008V162.732L3617.42 141.885V571.938H3575.73V545.73C3566.6 554.863 3555.38 562.706 3542.07 569.258C3528.97 575.81 3511.8 579.086 3490.55 579.086ZM3495.32 541.56C3512.59 541.56 3528.18 537.391 3542.07 529.052C3556.17 520.713 3567.39 508.998 3575.73 493.909V342.02C3569.57 331.894 3559.94 322.066 3546.84 312.536C3533.93 302.807 3516.76 297.943 3495.32 297.943C3465.93 297.943 3443.4 308.466 3427.71 329.512C3412.03 350.359 3404.18 380.34 3404.18 419.454C3404.18 442.088 3407.86 462.638 3415.2 481.103C3422.75 499.568 3433.27 514.26 3446.77 525.18C3460.47 536.1 3476.65 541.56 3495.32 541.56Z" fill="url(#paint7_linear_274_175)"/>
<path d="M324.934 609.783C332.444 656.236 345.713 696.987 363.181 731.868C402.82 739.49 442.041 740.658 479.871 733.537C423.571 679.017 377.423 600.909 354.419 522.801C256.673 190.925 122.765 242.023 44.7124 320.104C18.3982 346.418 7.35512 381.188 8.49559 418.629C14.3927 401.578 23.8502 385.973 37.2577 372.537C115.31 294.457 265.129 239.965 324.934 609.783Z" fill="#046699"/>
<path d="M685.101 556.626C691.971 538.879 697.952 519.741 702.987 499.658Z" fill="#06A9FF"/>
<path d="M371.527 156.933C383.07 106.474 411.137 62.5801 457.006 37.2951C744.043 -121.035 815.753 272.26 733.25 529.922L713.667 581.827C696.672 620.353 675.642 653.955 650.886 679.602C610.636 721.27 564.711 748.67 515.699 763.885C459.871 782.494 391.221 778.044 391.221 778.044C301.235 772.564 199.26 756.625 117.174 700.074C25.1302 636.653 -19.9323 500.771 8.46819 418.629C9.4974 452.342 290.776 868.474 569.968 685.332C809.578 528.142 583.793 -20.535 452.222 58.2686C408.328 84.555 382.653 119.214 373.14 156.683" fill="#06A9FF"/>
<path d="M745.683 753.788C673.695 828.697 589.078 817.598 515.699 763.885C475.782 776.291 433.807 780.63 391.221 778.044C480.539 900.491 632.582 916.152 738.201 806.249C772.332 770.728 784.738 734.928 781.511 700.047C774.334 718.127 762.651 736.124 745.683 753.788Z" fill="#046699"/>
<path d="M373.195 156.627C352.083 239.853 410.636 337.127 526.241 388.281C588.716 415.931 653.307 454.762 702.987 499.658L733.25 529.922C780.594 582.829 804.598 641.91 781.511 700.047C777.672 658.572 751.692 618.461 713.667 581.799L685.101 556.626C635.198 516.181 572.36 481.049 512.305 454.484C397.952 403.859 346.742 265.25 371.526 156.961L373.195 156.627Z" fill="#00357F"/>
<defs>
<linearGradient id="paint0_linear_274_175" x1="2715.81" y1="-33.5547" x2="1877.38" y2="921.863" gradientUnits="userSpaceOnUse">
<stop stop-color="#06A9FF"/>
<stop offset="1" stop-color="#046699"/>
</linearGradient>
<linearGradient id="paint1_linear_274_175" x1="2715.81" y1="-33.5547" x2="1877.38" y2="921.863" gradientUnits="userSpaceOnUse">
<stop stop-color="#06A9FF"/>
<stop offset="1" stop-color="#046699"/>
</linearGradient>
<linearGradient id="paint2_linear_274_175" x1="2715.81" y1="-33.5547" x2="1877.38" y2="921.863" gradientUnits="userSpaceOnUse">
<stop stop-color="#06A9FF"/>
<stop offset="1" stop-color="#046699"/>
</linearGradient>
<linearGradient id="paint3_linear_274_175" x1="2715.81" y1="-33.5547" x2="1877.38" y2="921.863" gradientUnits="userSpaceOnUse">
<stop stop-color="#06A9FF"/>
<stop offset="1" stop-color="#046699"/>
</linearGradient>
<linearGradient id="paint4_linear_274_175" x1="2715.81" y1="-33.5547" x2="1877.38" y2="921.863" gradientUnits="userSpaceOnUse">
<stop stop-color="#06A9FF"/>
<stop offset="1" stop-color="#046699"/>
</linearGradient>
<linearGradient id="paint5_linear_274_175" x1="2715.81" y1="-33.5547" x2="1877.38" y2="921.863" gradientUnits="userSpaceOnUse">
<stop stop-color="#06A9FF"/>
<stop offset="1" stop-color="#046699"/>
</linearGradient>
<linearGradient id="paint6_linear_274_175" x1="2715.81" y1="-33.5547" x2="1877.38" y2="921.863" gradientUnits="userSpaceOnUse">
<stop stop-color="#06A9FF"/>
<stop offset="1" stop-color="#046699"/>
</linearGradient>
<linearGradient id="paint7_linear_274_175" x1="2715.81" y1="-33.5547" x2="1877.38" y2="921.863" gradientUnits="userSpaceOnUse">
<stop stop-color="#06A9FF"/>
<stop offset="1" stop-color="#046699"/>
</linearGradient>
</defs>
</svg>
